<svg width="214" height="50" viewBox="0 0 214 50" fill="none" xmlns="http://www.w3.org/2000/svg">
<path d="M11.7331 10.0024L4.06929 39.8766C3.97522 40.2433 3.95618 40.3255 3.8453 40.6875C3.61713 41.4324 3.5 42.5009 3.5 43.28V43.4748C3.5 44.2466 3.45505 44.7453 3.73673 45.4639C4.47687 47.352 6.97053 47.9083 8.99851 47.9118L53.3058 47.9889C57.523 47.9963 62.1662 47.5024 64.2349 43.8275C64.4816 43.3894 64.6705 42.9892 64.7946 42.6707L73.1201 9.31871C73.3722 8.30881 73.4851 7.26919 73.4557 6.22871C73.4377 5.59226 73.399 4.94391 73.1434 4.36074C73.0793 4.21436 73.0086 4.07524 72.9329 3.94322C71.9447 2.221 69.7013 2.00239 67.7158 2.00705L30.9006 2.0935H21.6503C18.887 2.0935 15.6759 2.60928 13.9532 4.76995C12.6892 6.35539 12.237 8.03829 11.7331 10.0024Z" fill="white" stroke="white"/>
<path d="M44.1271 2.76559L43.7582 2.34268C43.5683 2.12495 43.2935 2 43.0046 2H39.8288C39.6517 2 39.4931 2.10927 39.43 2.27465L39.4229 2.29312C39.4027 2.34622 39.3697 2.39354 39.3269 2.43092L39.3243 2.43317C39.2336 2.51241 39.1079 2.53799 38.9934 2.5005C38.9277 2.47899 38.8701 2.43808 38.8282 2.38316L38.755 2.28718C38.6169 2.1062 38.4022 2 38.1745 2H33.3155C32.4052 2 31.9684 3.11732 32.6372 3.73478L36.5708 7.36607C36.8556 7.62893 36.9629 8.03254 36.8459 8.40198C35.0983 13.9188 33.1724 19.7915 31.1148 24.252C29.6623 27.4009 29.0487 29.6631 27.0629 31.2519C27.0533 31.2596 27.0405 31.2623 27.0286 31.2591L24.4582 30.5574C22.7669 30.0957 21.0216 29.8618 19.2684 29.8618H18.8008C17.7841 29.8618 16.7165 29.885 15.8687 30.4462C15.3709 30.7757 14.9853 31.1845 14.7052 31.5712C14.3011 32.1291 14.2035 32.8321 14.2035 33.5209C14.2035 34.3748 14.3536 35.2459 14.8595 35.9337C16.3604 37.974 18.4946 38.1829 18.5562 38.1829H22.8593L23.1377 38.1453C23.7233 37.9845 25.7699 37.3448 27.0201 36.9503C27.1787 36.9002 27.3471 36.8904 27.5104 36.9218L32.5198 37.8845C32.582 37.8964 32.6452 37.9024 32.7085 37.9024H33.7325C34.2931 37.9024 34.7412 38.3639 34.7606 38.9241C34.9137 43.3415 36.6533 46.3148 37.7623 47.5344C37.932 47.7211 38.1765 47.813 38.4289 47.813H51.9703C52.189 47.813 52.4026 47.7445 52.5662 47.5994C54.1027 46.2377 56.0117 42.9629 57.0746 40.8901C57.2947 40.4609 57.1624 39.9398 56.773 39.6552L54.5825 38.0545C54.1211 37.7174 53.4713 37.8348 53.1646 38.317C51.9124 40.286 51.1296 41.6841 49.8814 42.6707C46.476 45.3623 43.0523 44.6123 41.176 42.9512C40.008 41.8709 39.8383 40.3004 39.4393 38.9881C39.4089 38.8879 39.3921 38.7841 39.3921 38.6794V38.4804C39.3921 38.0289 39.6946 37.6334 40.1304 37.5153L41.3842 37.1754C41.4356 37.1615 41.4858 37.1435 41.5343 37.1215L43.4506 36.2557C43.5039 36.2316 43.555 36.2029 43.6032 36.1699L45.1719 35.0976C45.7118 34.7546 46.0402 34.479 46.7134 33.6371C46.7321 33.6138 46.7495 33.5874 46.764 33.5613L46.8176 33.4645C47.0812 32.9893 47.6693 33.2453 47.6693 33.7886C47.6693 33.7912 47.6695 33.7938 47.6697 33.7962C47.6802 33.9161 47.8718 33.8598 47.9841 33.8167C58.9791 29.5996 62.3941 20.5849 62.7254 16.5854V13.6932C62.7254 13.6269 62.7186 13.5591 62.7051 13.4942C61.5993 8.19233 58.268 6.92431 56.7315 6.95528H54.8049C51.5282 7.25764 48.7148 9.20996 47.1414 10.6878C46.662 11.1381 45.8694 11.1024 45.4898 10.5653L43.0473 7.10897C42.8204 6.78779 42.8027 6.36341 43.0023 6.02451L44.2352 3.93026C44.4537 3.55924 44.4101 3.09005 44.1271 2.76559Z" fill="#0181FE"/>
<path d="M30.187 16.2114L32.399 11.1626C27.3756 6.82439 25.6637 3.24661 25.5489 2H20.8394C20.8394 7.60976 27.0712 13.9675 30.187 16.2114Z" fill="#0181FE"/>
<path d="M35.7313 33.5081L33.0911 33.2276C35.4459 30.2358 36.5162 26.2154 37.8006 22.7561C39.2277 18.4553 40.0126 15.2764 40.8689 13.5935L43.295 17.3333C38.1574 24.2146 36.0881 31.0149 35.7313 33.5081Z" fill="white"/>
<path d="M19.5336 34.2561H20.8894C22.659 34.4057 23.3869 34.8794 23.5296 35.0976V35.752C23.2442 36.3504 22.1262 36.5 21.603 36.5H20.8894H19.6764C18.2492 35.939 18.7487 34.4431 19.5336 34.2561Z" fill="white"/>
<path d="M40.6548 32.8536C40.7262 32.7601 41.5111 29.3008 45.1503 23.3171C45.1028 23.3952 46.8628 30.7032 40.6548 32.8536Z" fill="white"/>
<path d="M48.7894 18.4553C49.9882 21.0731 49.9073 26.0284 49.717 28.1788C54.9117 25.4114 57.257 21.229 57.7802 19.4837C59.2644 14.4723 56.5434 13.7181 54.9974 14.061C52.4285 14.3601 49.7884 17.1152 48.7894 18.4553Z" fill="white"/>
<path d="M86.1846 34.5H90.6768C91.4906 34.5 92.2515 34.4023 92.9595 34.207C93.6756 34.0117 94.3267 33.731 94.9126 33.3647C95.4334 33.0311 95.9054 32.6283 96.3286 32.1562C96.7599 31.6842 97.1261 31.1593 97.4272 30.5815C97.7365 29.9875 97.9725 29.3324 98.1353 28.6162C98.3062 27.8919 98.3916 27.127 98.3916 26.3213V24.9297C98.3916 24.0915 98.3021 23.3021 98.123 22.5615C97.944 21.821 97.6917 21.1414 97.3662 20.5229C97.0488 19.9289 96.6541 19.3918 96.1821 18.9116C95.7183 18.4315 95.1852 18.0327 94.583 17.7153C94.0296 17.4061 93.4152 17.166 92.7397 16.9951C92.0643 16.8161 91.3441 16.7266 90.5791 16.7266H86.1846V34.5ZM89.1509 19.1191H90.5791C91.0511 19.1273 91.4906 19.1842 91.8975 19.29C92.3044 19.3877 92.6706 19.5301 92.9961 19.7173C93.4437 19.9696 93.8302 20.2992 94.1558 20.7061C94.4813 21.1048 94.7417 21.5524 94.937 22.0488C95.0916 22.4557 95.2096 22.8993 95.291 23.3794C95.3724 23.8595 95.4131 24.3682 95.4131 24.9053V26.3213C95.4131 26.8665 95.3724 27.3792 95.291 27.8594C95.2096 28.3395 95.0916 28.783 94.937 29.1899C94.758 29.6701 94.526 30.0973 94.2412 30.4717C93.9645 30.8379 93.6471 31.1431 93.2891 31.3872C92.9391 31.6232 92.5444 31.8063 92.105 31.9365C91.6737 32.0586 91.1976 32.1196 90.6768 32.1196H89.1509V19.1191ZM113.333 29.0312H110.391C110.342 29.5684 110.236 30.0444 110.074 30.4595C109.911 30.8745 109.695 31.2204 109.427 31.4971C109.15 31.7819 108.816 31.9976 108.426 32.144C108.035 32.2905 107.588 32.3638 107.083 32.3638C106.66 32.3638 106.281 32.3068 105.948 32.1929C105.622 32.0708 105.333 31.8958 105.081 31.668C104.837 31.4564 104.625 31.2041 104.446 30.9111C104.275 30.6182 104.133 30.2926 104.019 29.9346C103.873 29.5033 103.763 29.0272 103.689 28.5063C103.624 27.9855 103.592 27.4281 103.592 26.834V24.3804C103.592 23.9002 103.616 23.4323 103.665 22.9766C103.722 22.5127 103.803 22.0773 103.909 21.6704C104.048 21.2065 104.222 20.7874 104.434 20.4131C104.654 20.0306 104.926 19.7214 105.252 19.4854C105.488 19.29 105.757 19.1395 106.058 19.0337C106.367 18.9279 106.713 18.875 107.095 18.875C107.64 18.875 108.108 18.9564 108.499 19.1191C108.89 19.2738 109.219 19.5016 109.488 19.8027C109.748 20.1038 109.952 20.4701 110.098 20.9014C110.253 21.3245 110.354 21.8006 110.403 22.3296H113.333C113.243 21.4425 113.044 20.6369 112.735 19.9126C112.434 19.1883 112.019 18.5698 111.49 18.0571C110.969 17.5526 110.338 17.1619 109.598 16.8853C108.865 16.6086 108.031 16.4702 107.095 16.4702C106.403 16.4702 105.765 16.5638 105.179 16.751C104.601 16.9382 104.072 17.1986 103.592 17.5322C103.087 17.8984 102.64 18.342 102.249 18.8628C101.867 19.3755 101.553 19.9492 101.309 20.584C101.081 21.1536 100.91 21.7599 100.796 22.4028C100.682 23.0457 100.625 23.7131 100.625 24.4048V26.834C100.625 27.5583 100.682 28.2541 100.796 28.9214C100.918 29.5887 101.097 30.2072 101.333 30.7769C101.569 31.3547 101.858 31.8877 102.2 32.376C102.55 32.8561 102.957 33.2671 103.421 33.6089C103.901 33.9751 104.446 34.2599 105.057 34.4634C105.675 34.6587 106.351 34.7563 107.083 34.7563C107.978 34.7563 108.792 34.6221 109.524 34.3535C110.265 34.0768 110.904 33.6862 111.441 33.1816C111.97 32.6852 112.397 32.0871 112.723 31.3872C113.048 30.6792 113.252 29.8939 113.333 29.0312ZM128.396 26.7974V24.4536C128.396 23.7131 128.331 23.001 128.201 22.3174C128.071 21.6257 127.876 20.9787 127.615 20.3765C127.379 19.8149 127.086 19.2982 126.736 18.8262C126.386 18.3542 125.975 17.9432 125.503 17.5933C125.031 17.2433 124.498 16.9707 123.904 16.7754C123.31 16.5801 122.659 16.4824 121.951 16.4824C121.251 16.4824 120.608 16.5801 120.022 16.7754C119.445 16.9626 118.928 17.2311 118.472 17.5811C118 17.9391 117.589 18.3623 117.239 18.8506C116.897 19.3307 116.609 19.8597 116.373 20.4375C116.128 21.0397 115.945 21.6785 115.823 22.354C115.701 23.0295 115.64 23.7293 115.64 24.4536V26.7974C115.64 27.4891 115.697 28.1646 115.811 28.8237C115.925 29.4748 116.096 30.0892 116.324 30.667C116.56 31.2692 116.853 31.8226 117.203 32.3271C117.561 32.8317 117.976 33.263 118.448 33.6211C118.912 33.971 119.437 34.2477 120.022 34.4512C120.617 34.6465 121.268 34.7441 121.976 34.7441C122.659 34.7441 123.286 34.6506 123.855 34.4634C124.433 34.2762 124.958 34.0199 125.43 33.6943C125.918 33.3363 126.35 32.909 126.724 32.4126C127.098 31.908 127.412 31.3587 127.664 30.7646C127.9 30.1706 128.079 29.5399 128.201 28.8726C128.331 28.2052 128.396 27.5135 128.396 26.7974ZM125.442 24.4292V26.7974C125.434 27.2368 125.406 27.6722 125.357 28.1035C125.316 28.5267 125.247 28.9336 125.149 29.3242C125.035 29.7718 124.881 30.1828 124.686 30.5571C124.498 30.9233 124.262 31.2407 123.978 31.5093C123.733 31.7453 123.44 31.9325 123.099 32.0708C122.765 32.2091 122.391 32.2783 121.976 32.2783C121.544 32.2783 121.162 32.2091 120.828 32.0708C120.503 31.9243 120.214 31.729 119.961 31.4849C119.701 31.2244 119.477 30.9071 119.29 30.5327C119.111 30.1502 118.969 29.7393 118.863 29.2998C118.765 28.9092 118.696 28.5023 118.655 28.0791C118.615 27.6559 118.594 27.2287 118.594 26.7974V24.4292C118.594 23.9897 118.615 23.5544 118.655 23.123C118.704 22.6836 118.777 22.2686 118.875 21.8779C118.981 21.4222 119.131 21.0112 119.327 20.645C119.522 20.2707 119.762 19.9492 120.047 19.6807C120.283 19.4609 120.56 19.29 120.877 19.168C121.194 19.0378 121.552 18.9727 121.951 18.9727C122.366 18.9727 122.736 19.0378 123.062 19.168C123.388 19.2982 123.676 19.4772 123.929 19.7051C124.214 19.9655 124.454 20.2829 124.649 20.6572C124.852 21.0234 125.015 21.4303 125.137 21.8779C125.243 22.2686 125.316 22.6795 125.357 23.1108C125.406 23.5422 125.434 23.9816 125.442 24.4292ZM131.802 16.7266V19.1558H135.513V32.083H131.802V34.5H142.276V32.083H138.479V19.1558H142.276V16.7266H131.802ZM149.856 16.7266H146.219V34.5H148.965V28.4697L148.807 20.8281L151.285 29.019H152.811L155.545 20.5352L155.374 28.4697V34.5H158.133V16.7266H154.483L152.054 24.3315L149.856 16.7266ZM161.368 34.5H167.52C168.399 34.5 169.213 34.3901 169.961 34.1704C170.718 33.9425 171.369 33.6089 171.915 33.1694C172.46 32.7381 172.887 32.201 173.196 31.5581C173.506 30.9152 173.656 30.1706 173.648 29.3242C173.648 28.8441 173.579 28.3883 173.44 27.957C173.31 27.5176 173.115 27.1188 172.854 26.7607C172.602 26.4271 172.289 26.13 171.915 25.8696C171.54 25.6011 171.089 25.3976 170.56 25.2593V25.2349C170.918 25.0884 171.231 24.9256 171.5 24.7466C171.776 24.5594 172.024 24.3438 172.244 24.0996C172.553 23.766 172.789 23.3835 172.952 22.9521C173.123 22.5127 173.213 22.0407 173.221 21.5361C173.221 20.7061 173.062 19.9899 172.745 19.3877C172.435 18.7773 172.004 18.2769 171.451 17.8862C170.897 17.4956 170.242 17.2067 169.485 17.0195C168.729 16.8242 167.919 16.7266 167.056 16.7266H161.368V34.5ZM164.322 26.4678H167.691C168.171 26.4759 168.598 26.5492 168.973 26.6875C169.347 26.8177 169.664 27.0049 169.925 27.249C170.185 27.4932 170.381 27.7902 170.511 28.1401C170.641 28.4819 170.706 28.8766 170.706 29.3242C170.706 29.7474 170.625 30.134 170.462 30.4839C170.307 30.8257 170.083 31.1146 169.791 31.3506C169.522 31.5785 169.196 31.7575 168.814 31.8877C168.431 32.0179 168.008 32.083 167.544 32.083H164.322V26.4678ZM164.322 24.2339V19.1558H167.093C167.597 19.1639 168.057 19.2249 168.472 19.3389C168.887 19.4447 169.233 19.6196 169.51 19.8638C169.754 20.0591 169.941 20.3114 170.071 20.6206C170.21 20.9217 170.279 21.2798 170.279 21.6948C170.279 22.0854 170.206 22.4313 170.059 22.7324C169.913 23.0335 169.713 23.2899 169.461 23.5015C169.184 23.7375 168.842 23.9165 168.436 24.0386C168.037 24.1606 167.597 24.2257 167.117 24.2339H164.322ZM182.376 27.603L185.782 34.5H188.919V34.3413L185.123 26.9072C185.611 26.6875 186.054 26.4271 186.453 26.126C186.852 25.8249 187.194 25.4749 187.479 25.0762C187.763 24.6774 187.983 24.2298 188.138 23.7334C188.3 23.237 188.382 22.6836 188.382 22.0732C188.382 21.1862 188.227 20.4131 187.918 19.7539C187.609 19.0866 187.177 18.5291 186.624 18.0815C186.062 17.6421 185.395 17.3084 184.622 17.0806C183.849 16.8527 183.003 16.7347 182.083 16.7266H176.443V34.5H179.373V27.603H182.376ZM179.373 25.2104V19.1191H182.083C182.588 19.1273 183.043 19.1965 183.45 19.3267C183.857 19.4487 184.203 19.6318 184.488 19.876C184.797 20.1364 185.029 20.4619 185.184 20.8525C185.346 21.235 185.428 21.6826 185.428 22.1953C185.428 22.651 185.354 23.0579 185.208 23.416C185.062 23.7741 184.858 24.0752 184.598 24.3193C184.305 24.6042 183.947 24.8239 183.523 24.9785C183.108 25.125 182.64 25.2023 182.12 25.2104H179.373ZM200.052 30.4106L201.248 34.5H204.288L198.599 16.7266H195.999L190.213 34.5H193.265L194.473 30.4106H200.052ZM195.218 27.896L197.293 20.8647L199.332 27.896H195.218Z" fill="white"/>
</svg>
